<svg xmlns="http://www.w3.org/2000/svg" width="236" height="22" fill="none"><g fill="#231815" stroke="#231815" stroke-miterlimit="10" stroke-width=".25" clip-path="url('#clip0_4_11176')"><path d="M22.442 14.226h2.77v6.4c-5.462.514-7.58-2.16-7.58-9.801 0-1.234.147-2.775.609-4.131l.009.03h1.93V3.969a3.4 3.4 0 0 1 1.334-.496c1.884-.11 4.658-.65 6.888 4.903h.771l.425-4.534s-4.386-1.72-8.966-1.207c-.152.017-.3.035-.452.057V.053H.055V6.72h1.893l1.297-4.306h4.197v17.04l-3 .878v1.611h11.347v-1.589q.165.099.337.198c2.618 1.461 7.156 1.281 7.655 1.207.498-.075 6.27-1.537 6.27-1.537V13.31h-7.618v.913zm-9.65 5.233v-1.892c.79 1.22 1.815 2.076 2.928 2.747zm0-12.91V2.42h4.211l.287.992c-1.778.654-3.384 1.685-4.497 3.143zM41.602 4.534h1.422s.655-1.646 2.271-1.646h3.809c.55 0 .678.553.688.61V17.37c0 1.536-1.422 1.79-1.422 1.79l.73 1.243h4.357l.73-1.242s-1.422-.255-1.422-1.791q.001-.026-.005-.053V3.507s.116-.623.693-.623h3.809c1.615 0 2.271 1.646 2.271 1.646h1.422V1.822H41.602v2.712ZM98.503 17.518 91.772 1.861h-.96L84.427 17.15s-1.002 2.304-2.503 2.304c-1.5 0-2.46-.878-3.038-1.462s-5.618-6.51-5.618-6.51 4.885-.877 4.885-4.863c0-3.985-4.003-4.793-7.078-4.793h-8.08l.809 1.062c.96 0 1.694.694 1.694 1.791v13.335c0 1.225-1.5 1.41-1.5 1.41l.577 1.022h4.602l.485-1.023s-1.546-.35-1.546-1.409v-6.382c1.21 0 2.008.013 2.848 1.097.845 1.098 6.233 7.682 6.233 7.682h10.35v-.843h-.96c-1.154 0-1.306-1.317-.886-2.414.134-.351.678-1.69 1.353-3.345h6.92c.84 2.094 1.528 3.806 1.611 4.003.231.549.194 1.756-1.385 1.756h-1.002v.843h8.195v-.843h-.845c-.808 0-1.694-1.242-2.04-2.05zM70.11 10.456h-1.999V3.577c0-.373.365-.583.656-.583h1.73c.666 0 4.387-.466 4.387 3.678s-4.068 3.784-4.77 3.784zm17.447 2.085c1.371-3.358 2.978-7.278 2.978-7.278l2.917 7.278h-5.9zM117.234 2.805s1.56.202 1.56 1.848V15.96L107.621 1.782h-4.616l.845 1.282s1.315.22 1.315 1.571v12.976c0 1.922-2.197 1.848-2.197 1.848l.503.957h4.751l.503-.957s-2.198.07-2.198-1.848V5.412l12.096 15.034h1.538v-2.05l-.01-.013V4.657c0-1.734 1.732-1.848 1.732-1.848l.738-.957h-6.011l.624.957zM135.627 19.458c-5.619.404-7.077-4.025-7.077-8.704s2.733-7.497 5.577-7.826c2.844-.33 5.272.952 6.117 1.975s1.75 2.45 1.75 2.45V1.75h-.827a73 73 0 0 1-.425 1.611c-5.041-3.656-15.544-1.79-15.544 7.866 0 9.657 10.655 11.852 15.891 7.353.115.439.54 1.865.54 1.865h.979v-6.29s-2.637 4.903-6.981 5.302ZM157.021 19.463c-2.521.009-4.27 0-4.27 0-.522-.03-2.018-.259-2.018-1.844v-6.465h1.865c2.849 0 3.001 2.963 3.001 2.963l.808-.913V8.52l-.808-1.062s-.231 2.818-3.001 2.818h-1.865V3.384c0-.452.365-.535.785-.535h4.118c3.615 0 3.73 2.853 3.73 2.853l.924-1.427V1.751h-13.62l-1.002 1.023h.693c.96 0 1.768.61 1.768 2.414q0 .158.028.268V17.62c0 1.923-2.198 1.848-2.198 1.848l.504.957h14.635l.078-3.49-.845-1.022s-.789 3.547-3.31 3.555zM185.52 12.686l-1.237.957s2.244-.194 2.244 1.997c0 1.589-1.468 3.805-4.636 3.805-4.981 0-7.225-2.765-7.225-9.143s5.037-7.993 8.237-7.256c3.194.738 4.921 4.434 4.921 4.434l.319-4.434-.952-1.15s-.23.769-.434 1.423c-5.152-3.56-15.401-1.642-15.401 7.857 0 9.498 9.644 11.825 16.039 7.444.318-.22 1.639-.22 1.639-.22v-3.45c0-1.588 2.017-1.369 2.017-1.369l-.951-.904h-4.58zM205.802 1.844l-.961.97s.924.035 1.191.254c.462.566.153 1.282-.309 2.05s-3.481 5.54-4.076 6.474c-4.483-7.387-4.742-7.953-4.539-8.304.203-.347.577-.474 2.156-.474a144 144 0 0 1-1.002-.97h-5l-1.232 1.08s1.269.074 1.694.693 5.854 9.582 5.854 9.582v4.42c0 1.923-2.197 1.848-2.197 1.848l.503.957h5.965l.503-.957s-2.198.07-2.198-1.848v-4.635c.845-1.3 5.753-8.98 6.039-9.385.596-.93 1.962-.785 1.962-.785l-.808-.97h-3.545ZM233.904 17.62V5.29c0-2.266 1.463-2.35 1.463-2.35l-.808-1.096h-3.781l-6.579 14.458-6.579-14.458h-4.012l-.895.987s1.5.22 1.5 2.467.019 10.873.019 12.317c0 1.922-2.198 1.848-2.198 1.848l.503.957h4.594l.66-.957s-2.197.07-2.197-1.848V4.425h.004l7.53 16.32h.49l7.733-16.404h.018V17.62c0 1.923-2.197 1.848-2.197 1.848l1.14.957h4.381l1.141-.957s-1.939.07-1.939-1.848z"/></g><defs><clipPath id="clip0_4_11176"><path fill="#fff" d="M0 0h236v22H0z"/></clipPath></defs></svg>