<svg xmlns="http://www.w3.org/2000/svg" width="67" height="66" fill="none"><g filter="url('#filter0_d_8_1715')"><ellipse cx="30.239" cy="30" fill="#FF2121" rx="29.965" ry="30"/></g><path fill="#fff" d="M29.82 34.134c.185.26.433.402.7.402s.515-.143.7-.402l5.054-7.1c.189-.264.24-.522.147-.723-.094-.201-.318-.313-.63-.313h-1.935c-.524 0-.95-.454-.95-1.012V19.13c0-.664-.507-1.204-1.13-1.204h-2.512c-.623 0-1.13.54-1.13 1.204v5.856c0 .558-.426 1.012-.95 1.012H25.25c-.312 0-.536.112-.63.313s-.041.459.148.724z"/><path fill="#fff" d="M41.193 33.22v6.691H19.847V33.22H16.08v9.177c0 .843.643 1.529 1.435 1.529h26.01c.791 0 1.435-.686 1.435-1.53V33.22z"/><defs><filter id="filter0_d_8_1715" width="65.749" height="65.819" x=".274" y="0" color-interpolation-filters="sRGB" filterUnits="userSpaceOnUse"><feFlood flood-opacity="0" result="BackgroundImageFix"/><feColorMatrix in="SourceAlpha" result="hardAlpha" values="0 0 0 0 0 0 0 0 0 0 0 0 0 0 0 0 0 0 127 0"/><feOffset dx="5.819" dy="5.819"/><feComposite in2="hardAlpha" operator="out"/><feColorMatrix values="0 0 0 0 0 0 0 0 0 0 0 0 0 0 0 0 0 0 0.15 0"/><feBlend in2="BackgroundImageFix" result="effect1_dropShadow_8_1715"/><feBlend in="SourceGraphic" in2="effect1_dropShadow_8_1715" result="shape"/></filter></defs></svg>