<svg xmlns="http://www.w3.org/2000/svg" width="163" height="123" fill="none"><path fill="#D2D2D2" d="M3.205 120.755h33.767l3.387-19.251c.09-.506.526-.875 1.04-.875h101.573l17.32-98.51H42.02L26.528 90.22c-.09.506-.526.875-1.04.875H8.42z"/><path fill="#88A28C" d="M37.86 122.873H1.946c-.312 0-.61-.14-.807-.378a1.07 1.07 0 0 1-.232-.866l5.589-31.778c.09-.505.525-.874 1.039-.874h17.07L40.095.874c.09-.506.526-.875 1.04-.875H161.55c.312 0 .609.14.807.378.201.24.284.556.232.866l-17.694 100.629c-.09.505-.526.874-1.039.874H42.283l-3.387 19.251c-.09.506-.526.875-1.04.875zm-34.655-2.118h33.767l3.387-19.252c.09-.505.526-.874 1.04-.874h101.573l17.32-98.51H42.02L26.528 90.22c-.09.506-.526.875-1.04.875H8.42z"/></svg>