<svg xmlns="http://www.w3.org/2000/svg" width="327" height="257" fill="none"><path fill="url('#paint0_linear_8_1568')" d="M94.914 254.447h35.882l7.296-41.495c.09-.506.526-.875 1.039-.875h16.9c.312 0 .609.139.807.378.201.239.284.555.232.866l-2.762 15.706h91.863l2.826-16.072c.09-.506.526-.875 1.04-.875h15.844c.313 0 .609.14.807.378.201.239.285.556.232.866l-2.762 15.706h20.039L324.054 2.349h-20.039l-3.197 18.19c-.09.506-.526.875-1.04.875h-57.207l-21.078 119.88c-.09.505-.526.875-1.039.875h-34.856a1.063 1.063 0 0 1-1.039-1.244l2.573-14.646h-14.756l-2.638 15.015c-.09.505-.526.875-1.039.875H11.145l-8.567 48.725h102.257c.313 0 .61.139.808.378.201.239.284.555.231.865L94.917 254.45z"/><path fill="#00B619" d="M131.681 256.565H93.655c-.313 0-.61-.139-.807-.378a1.07 1.07 0 0 1-.232-.866l10.957-62.312H1.316c-.313 0-.61-.14-.807-.379a1.07 1.07 0 0 1-.232-.865l8.94-50.843c.09-.506.527-.875 1.04-.875h157.554l2.638-15.014c.09-.506.526-.875 1.04-.875h16.899c.312 0 .609.14.807.378.201.239.284.556.232.866l-2.573 14.645h32.712l21.078-119.88a1.055 1.055 0 0 1 1.039-.875h57.208l3.198-18.19a1.055 1.055 0 0 1 1.039-.875h22.182c.312 0 .609.14.807.379.201.239.284.555.232.865L286.12 230.27a1.055 1.055 0 0 1-1.039.875H262.9c-.313 0-.61-.14-.808-.378a1.07 1.07 0 0 1-.232-.866l2.762-15.706h-13.701l-2.827 16.072a1.055 1.055 0 0 1-1.039.875h-94.009c-.312 0-.609-.14-.807-.378a1.07 1.07 0 0 1-.232-.866l2.762-15.706h-14.756l-7.296 41.495c-.09.506-.526.875-1.039.875zm-36.767-2.118h35.882l7.296-41.496c.09-.505.526-.874 1.04-.874h16.899c.312 0 .609.139.807.378.201.239.284.555.232.866l-2.762 15.706h91.863l2.826-16.072c.09-.506.526-.875 1.04-.875h15.844c.313 0 .609.14.807.378.201.239.285.556.232.866l-2.762 15.706h20.039L324.054 2.349h-20.039l-3.197 18.19c-.09.506-.526.875-1.04.875h-57.207l-21.078 119.88c-.09.505-.526.875-1.039.875h-34.856a1.063 1.063 0 0 1-1.039-1.244l2.573-14.646h-14.756l-2.638 15.015c-.09.505-.526.875-1.039.875H11.145l-8.567 48.724h102.257a1.063 1.063 0 0 1 1.039 1.244L94.917 254.45z"/><defs><linearGradient id="paint0_linear_8_1568" x1="25.572" x2="320.838" y1="254.45" y2="4.503" gradientUnits="userSpaceOnUse"><stop stop-color="#1DDF6B"/><stop offset="1" stop-color="#63E200"/></linearGradient></defs></svg>