<svg xmlns="http://www.w3.org/2000/svg" width="90" height="124" fill="none"><path fill="#D2D2D2" d="M16.992 121.512h49.612L87.465 2.875H10.389l-7.45 42.37h26.205c.312 0 .61.14.807.379.201.239.285.555.232.865z"/><path fill="#88A28C" d="M67.492 123.63H15.733c-.312 0-.609-.139-.807-.378a1.07 1.07 0 0 1-.232-.866l13.191-75.022H1.68c-.313 0-.61-.14-.808-.379a1.07 1.07 0 0 1-.232-.865L8.462 1.632c.09-.506.526-.875 1.04-.875H88.72c.312 0 .609.14.807.379.2.238.284.555.232.865L68.528 122.756c-.09.505-.526.874-1.04.874zm-50.5-2.118h49.612L87.464 2.875H10.39l-7.45 42.37h26.205c.312 0 .609.14.807.379.201.239.284.555.232.865z"/></svg>