<svg xmlns="http://www.w3.org/2000/svg" width="222" height="60" fill="none"><path fill="#212B2B" d="M59.117 52.288a3.95 3.95 0 0 1-1.807-.441l-8.68-4.466a10.66 10.66 0 0 0-4.86-1.173H18.875a6.3 6.3 0 0 1-4.4-1.783 6.01 6.01 0 0 1-1.824-4.297v-27.46a5.77 5.77 0 0 1 1.752-4.121 6.05 6.05 0 0 1 4.22-1.71h184.502a6.3 6.3 0 0 1 4.399 1.783 6 6 0 0 1 1.824 4.297v27.211a6 6 0 0 1-1.824 4.297 6.3 6.3 0 0 1-4.399 1.783H62.989V48.5a3.75 3.75 0 0 1-1.135 2.675 3.93 3.93 0 0 1-2.737 1.114M18.622 9.855c-.763 0-1.494.296-2.033.823a2.78 2.78 0 0 0-.843 1.985v27.465c.001.81.331 1.587.917 2.16a3.18 3.18 0 0 0 2.211.897h24.897c2.197.001 4.361.523 6.307 1.52l8.68 4.467a.8.8 0 0 0 .765-.022.77.77 0 0 0 .276-.277.74.74 0 0 0 .1-.374v-3.153c0-.573.234-1.123.65-1.528a2.24 2.24 0 0 1 1.565-.633h141.02a3.18 3.18 0 0 0 2.211-.897c.586-.573.916-1.35.917-2.16V12.917a3.03 3.03 0 0 0-.917-2.16 3.18 3.18 0 0 0-2.211-.897z"/><path fill="#212B2B" d="M59.826 20.389c.452 0 1.587.586 2.157.88 2.992 1.52 3.224 1.926 3.224 2.546 0 .54-.582 1.518-1.387 1.518-.316 0-.55-.064-1.262-.554-1.009-.685-2.406-1.437-3.06-1.78-.451-.228-1.009-.506-1.009-1.191.013-.3.115-.59.295-.833s.428-.43.714-.537q.163-.04.328-.05m12.937 2.806c0 .768-1.135 3.902-3.191 6.203-2.223 2.48-4.794 3.347-6.403 3.786-.936.246-2.27.54-2.876.54-1.085 0-1.352-.946-1.352-1.518 0-.986.6-1.175 1.486-1.29 4.288-.538 7.623-2.14 9.56-7.556.37-1.045.488-1.372 1.24-1.372q.227.006.451.049c.484.133 1.085.409 1.085 1.158M37.694 20.748H27.432c-.386 0-1.337.034-1.337 1.308s1.009 1.271 1.337 1.271h7.98a.5.5 0 0 0 .317-.114.5.5 0 0 0 .172-.285l.128-.71a.4.4 0 0 1 .15-.245.4.4 0 0 1 .282-.082.4.4 0 0 1 .271.151.38.38 0 0 1 .072.297s-.447 2.915-1.133 4.302c-1.052 2.155-3.325 3.771-6.501 4.621-.787.212-1.388.392-1.388 1.175 0 .407.235 1.478 1.305 1.478a6.7 6.7 0 0 0 1.703-.342c2.19-.67 4.815-2.008 6.62-4.587 2.055-2.971 2.174-6.464 2.174-6.546 0-.613-.036-1.692-1.89-1.692M44.348 22.804h9.361c.35 0 1.262-.015 1.262-1.232s-.972-1.207-1.262-1.207h-9.362c-.333 0-1.236.018-1.236 1.232s.954 1.207 1.236 1.207M54.142 24.388H43.077c-.603 0-1.262.229-1.262 1.231 0 1.193.987 1.193 1.262 1.193h8.678c.099 0 .195-.03.276-.086a.47.47 0 0 0 .176-.225l.252-.7a.4.4 0 0 1 .191-.214.4.4 0 0 1 .29-.032.4.4 0 0 1 .234.194.38.38 0 0 1 .019.3s-.719 2-.989 2.44c-1.47 2.498-4.347 2.89-6.753 3.215-.485.067-1.221.18-1.221 1.129.006.334.117.658.318.928.134.149.303.265.491.339.19.074.393.104.596.087.018 0 3.176-.13 5.85-1.616 3.784-2.106 4.314-6.17 4.314-6.676.015-1.261-.855-1.507-1.657-1.507M114.134 27.187a1.1 1.1 0 0 0-.437.392c-.105.167-.161.36-.161.557v4.789c0 .93.535 1.259 1.438 1.259 1.221 0 1.405-.67 1.405-1.274v-5.74a.65.65 0 0 0-.087-.325.68.68 0 0 0-.567-.343.7.7 0 0 0-.337.07zM119.653 19.524c-.166 0-.434.034-.868.377-2.24 1.845-2.775 2.286-4.715 3.313a31.4 31.4 0 0 1-6.352 2.464c-.504.145-1.009.308-1.009 1.091 0 .475.252 1.478 1.304 1.478.757 0 2.775-.682 4.685-1.495q.344-.145.674-.316l2.691-1.364q.351-.18.686-.38c2.238-1.347 3.247-2.153 3.85-2.68.452-.392.585-.685.585-1.044.008-.789-.794-1.444-1.531-1.444M131.182 29.697s1.571-1.877 1.566-1.882c1.572-2.17 2.609-4.584 2.609-5.646 0-1.436-1.261-1.518-1.973-1.518h-8.123c-.82 0-1.322.407-1.322 1.257 0 1.175.954 1.232 1.322 1.232h6.453c.149 0 .401 0 .401.214 0 .406-2.018 5.222-7.356 8.063-1.102.586-1.355.717-1.355 1.323 0 .739.603 1.436 1.289 1.436.886 0 3.643-1.535 6.486-4.491zM135.483 20.912c.033.114.202.668.235.799a.5.5 0 0 0 .186.305.51.51 0 0 0 .349.104.6.6 0 0 0 .455-.145.57.57 0 0 0 .196-.427 6 6 0 0 0-.434-1.55c-.185-.426-.351-.638-.651-.638-.134 0-.654.081-.654.522q.003.16.05.31c.033.117.218.605.268.72M136.754 31.016c-1.034-.92-1.622-1.364-2.462-2.002a.856.856 0 0 0-1.168.123l-.57.675a.87.87 0 0 0 .078 1.2c.795.738 1.499 1.401 2.215 2.192.437.505.757.85 1.373.85a1.6 1.6 0 0 0 1.078-.437c.289-.275.459-.648.476-1.041 0-.58-.285-.907-1.02-1.56M138.425 19.955c-.184-.456-.318-.702-.668-.702-.116 0-.669.05-.669.525a.8.8 0 0 0 .05.276c.051.116.235.62.268.74.351 1.128.383 1.21.785 1.21a.6.6 0 0 0 .448-.148.56.56 0 0 0 .188-.425 5.2 5.2 0 0 0-.402-1.476M102.605 24.34l-4.541.377-.167-1.601c-.05-.456-.184-1.094-1.188-1.094-1.085 0-1.403.604-1.32 1.355l.167 1.552-2.018.18c-.505.032-1.153.194-1.153 1.14-.012.194.023.389.101.567.079.179.199.337.35.463a1.25 1.25 0 0 0 .952.18l1.99-.197.6 5.78c.051.492.235 1.142 1.24 1.142 1.37 0 1.319-1.03 1.286-1.372l-.603-5.811 2.137-.215a.59.59 0 0 0 .474-.342l.28-.633a.4.4 0 0 1 .206-.21.41.41 0 0 1 .528.194.38.38 0 0 1 .003.304s-.437 1.444-1.428 2.242c-.732.588-.919.783-.919 1.232 0 .637.651 1.177 1.287 1.177 1.42 0 3.661-3.203 3.661-5.028.012-1.185-.757-1.48-1.925-1.382M182.785 20.846c.451 0 1.587.588 2.157.882 2.992 1.517 3.226 1.926 3.226 2.547 0 .537-.585 1.517-1.387 1.517-.318 0-.553-.066-1.262-.554-1.009-.687-2.406-1.436-3.06-1.781-.449-.227-1.009-.505-1.009-1.19.013-.3.116-.59.295-.833a1.57 1.57 0 0 1 .714-.539q.16-.04.326-.05m12.936 2.808c0 .766-1.135 3.9-3.191 6.203-2.222 2.48-4.793 3.346-6.403 3.786-.936.247-2.27.54-2.876.54-1.084 0-1.352-.949-1.352-1.52 0-.985.601-1.175 1.486-1.288 4.289-.54 7.624-2.139 9.564-7.558.366-1.045.484-1.37 1.236-1.37q.227.006.452.047c.484.13 1.084.416 1.084 1.155zM150.423 19.932c-1.069 0-1.319.589-1.319 1.207v1.683h-1.355c-.82 0-1.319.374-1.319 1.232 0 1.14.936 1.207 1.319 1.207h1.345v2.79c0 1.095.757 1.208 1.387 1.208.901 0 1.262-.456 1.262-1.207v-6.923c.017-.887-.5-1.197-1.32-1.197M160.586 22.821a.6.6 0 0 0-.412.167.56.56 0 0 0-.171.402v1.311c.001.151.062.296.171.402s.257.167.412.168c.802 0 1.322-.377 1.322-1.232 0-1.154-.959-1.218-1.322-1.218"/><path fill="#212B2B" d="M158.914 21.124c0-.914-.505-1.207-1.355-1.207-1.085 0-1.32.57-1.32 1.207v1.697h-2.522a.93.93 0 0 0-.646.262.88.88 0 0 0-.268.63v.675c0 .237.097.463.268.63a.93.93 0 0 0 .646.262h2.522v1.665c0 1.616-.317 2.4-.756 2.905-1.171 1.355-3.007 1.648-4.289 1.845-.416.064-1.171.212-1.171 1.062 0 .226.101 1.436 1.355 1.436.719 0 2.324-.328 3.784-.998 3.345-1.517 3.762-4.015 3.762-6.218z"/><path fill="#00D3D3" d="m177.062 21.654-5.045-1.232a.4.4 0 0 0-.109-.014h-6.09a1.1 1.1 0 0 0-.77.312c-.204.2-.319.47-.319.752v10.204c0 .288.118.564.326.767s.491.318.786.319h5.951q.063.001.124.017l4.871 1.377a.97.97 0 0 0 .835-.14.93.93 0 0 0 .389-.737V22.768c-.013-.407-.545-1.01-.949-1.114m-6.97 8.76a.51.51 0 0 1-.324.472.5.5 0 0 1-.201.038H167.1a.53.53 0 0 1-.483-.314.5.5 0 0 1-.039-.196v-7.678c0-.136.055-.265.153-.36a.53.53 0 0 1 .369-.15h2.467a.53.53 0 0 1 .37.149.5.5 0 0 1 .155.36zm6.246-1.764a.82.82 0 0 1-.48-.063.8.8 0 0 1-.357-.322.77.77 0 0 1 .083-.9.81.81 0 0 1 .894-.232c.155.055.29.155.385.288s.146.29.146.451a.71.71 0 0 1-.173.523.75.75 0 0 1-.498.256"/><path fill="#212B2B" d="M89.029 25.254h-2.45a.75.75 0 0 0-.517.207.7.7 0 0 0-.22.502l-.015.986a.7.7 0 0 0 .209.521.74.74 0 0 0 .528.218h2.465c.318 0 1.218-.017 1.218-1.232 0-1.214-.943-1.202-1.218-1.202M81.054 26.976l.015-1.005a.7.7 0 0 0-.207-.506.72.72 0 0 0-.515-.211h-3.572c-.335 0-1.236 0-1.236 1.21s.936 1.207 1.236 1.207h3.557a.73.73 0 0 0 .507-.203.7.7 0 0 0 .215-.492"/><path fill="#212B2B" d="M82.865 24.208a.78.78 0 0 0-.514.239.75.75 0 0 0-.208.517l-.05 2.71c-.167 2.17-1.171 3.282-4.398 3.998-.534.13-1.185.31-1.185 1.062 0 .081.032 1.453 1.337 1.453.65 0 2.19-.36 3.577-1.093 2.942-1.567 3.209-4.082 3.343-5.42l.05-2.816a.74.74 0 0 0-.265-.57.78.78 0 0 0-.613-.181c-.315.035-.688.074-1.074.101M87.408 20.144c-.235 0-.757.116-2.056.392-2.458.54-6.118.751-7.405.768-.686.015-1.423.082-1.423 1.094 0 1.256 1.022 1.256 1.438 1.256q2.098-.02 4.18-.26l2.675-.311c.333-.05 2.255-.31 2.941-.522.401-.13.87-.293.87-1.094 0-.374-.201-1.323-1.22-1.323"/></svg>