<svg xmlns="http://www.w3.org/2000/svg" width="557" height="438" fill="none"><path fill="#FFF9C5" d="M8.889 435.881h18.746l5.894-33.537-5.57-5.586-5.793 32.951c-.09.505-.525.875-1.039.875H3.607z"/><path fill="#88A28C" d="M28.52 437.999H8.45c-.281 0-.547-.111-.745-.31L.31 430.273a1.06 1.06 0 0 1-.23-1.153c.165-.397.548-.655.978-.655H20.24l5.99-34.079a1.055 1.055 0 0 1 1.785-.565l7.395 7.416c.244.245.353.592.294.933l-6.146 34.955c-.09.505-.525.874-1.039.874m-19.63-2.118h18.745l5.895-33.537-5.57-5.586-5.793 32.951c-.09.505-.526.874-1.04.874H3.608z"/><path fill="#FFF9C5" d="M62.565 400.927h50.434l20.982-119.338-5.57-5.586-20.88 118.752a1.055 1.055 0 0 1-1.039.874H57.285l5.283 5.298zm-14.05-76.267h17.443l.93-5.297H43.236l5.282 5.297z"/><path fill="#88A28C" d="M113.887 403.045H62.129c-.281 0-.547-.112-.745-.31l-7.395-7.416a1.058 1.058 0 0 1 .748-1.808h50.871l21.08-119.88a1.056 1.056 0 0 1 1.785-.565l7.395 7.416c.244.245.352.592.294.934L114.93 402.17c-.09.506-.526.875-1.04.875zm-51.322-2.118H113l20.981-119.338-5.57-5.585-20.879 118.751c-.09.505-.526.874-1.04.874H57.286l5.282 5.298zm4.278-74.148H48.078c-.281 0-.547-.112-.745-.311l-7.395-7.415a1.06 1.06 0 0 1-.229-1.154c.164-.397.548-.655.978-.655H68.15c.312 0 .61.14.807.379.201.239.285.555.232.865l-1.305 7.416c-.09.505-.526.875-1.04.875zm-18.329-2.119h17.444l.93-5.297H43.236l5.283 5.297z"/><path fill="#FFF9C5" d="M143.089 375.503h78.954l6.083-34.597-5.57-5.586-5.981 34.011c-.09.506-.526.875-1.039.875H137.81l5.283 5.297z"/><path fill="#88A28C" d="M222.927 377.622H142.65c-.281 0-.547-.112-.745-.31l-7.395-7.416a1.058 1.058 0 0 1 .745-1.808h79.39l6.179-35.14a1.054 1.054 0 0 1 1.785-.565l7.395 7.416c.244.245.352.592.293.933l-6.334 36.015a1.055 1.055 0 0 1-1.039.875zm-79.838-2.119h78.954l6.083-34.597-5.57-5.586-5.981 34.011c-.09.506-.526.875-1.04.875H137.81l5.282 5.297z"/><path fill="#FFF9C5" d="M245.486 381.858h36.703l7.296-41.495a1.055 1.055 0 0 1 1.039-.874h7.317l.931-5.298h-14.755l-7.296 41.495c-.09.506-.526.875-1.04.875h-35.474l5.282 5.297zm169.248-25.42h20.858l39.981-227.378-5.57-5.586-39.879 226.795c-.09.506-.526.875-1.039.875h-19.633l5.282 5.298zm-109.85 0h92.685l2.827-16.072c.09-.505.526-.874 1.039-.874h6.26l.931-5.298h-13.701l-2.827 16.072c-.09.506-.526.875-1.039.875h-91.458zm-151.737-38.133h93.493l.931-5.297h-99.706zm177.707-58.259h6.554l1.24-7.056-5.57-5.586z"/><path fill="#00B619" d="M283.073 383.977h-38.026c-.281 0-.547-.112-.745-.31l-7.395-7.416a1.058 1.058 0 0 1 .748-1.808h37.139l7.296-41.496a1.056 1.056 0 0 1 1.039-.874h16.899c.312 0 .609.139.807.378.201.239.285.555.232.866l-1.305 7.415c-.09.506-.526.875-1.039.875h-7.318l-7.296 41.495a1.055 1.055 0 0 1-1.039.875zm-37.587-2.119h36.703l7.296-41.495a1.055 1.055 0 0 1 1.039-.874h7.317l.931-5.298h-14.755l-7.296 41.495c-.09.506-.526.875-1.04.875h-35.474l5.282 5.297zm190.994-23.301h-22.182c-.281 0-.547-.112-.745-.31l-7.395-7.416a1.058 1.058 0 0 1 .745-1.808H428.2l40.077-227.922a1.055 1.055 0 0 1 1.785-.564l7.395 7.415c.244.245.352.593.293.934l-40.228 228.799c-.09.506-.526.875-1.039.875zm-21.746-2.119h20.858l39.981-227.378-5.57-5.586-39.879 226.795c-.09.506-.526.875-1.039.875h-19.633l5.282 5.297zm-16.28 2.119h-94.009c-.282 0-.548-.112-.746-.31l-7.395-7.416a1.06 1.06 0 0 1 .749-1.808h93.121l2.827-16.072c.09-.506.526-.875 1.039-.875h15.845c.312 0 .609.14.807.378.201.239.285.555.232.866l-1.305 7.415c-.09.506-.526.875-1.039.875h-6.26l-2.827 16.072c-.09.506-.526.875-1.039.875m-93.57-2.119h92.685l2.827-16.072c.09-.505.526-.874 1.039-.874h6.26l.931-5.298h-13.701l-2.827 16.072c-.09.506-.526.875-1.039.875h-91.458zm-57.356-36.014h-94.817c-.281 0-.547-.112-.745-.311l-7.395-7.415a1.06 1.06 0 0 1-.229-1.154c.164-.397.548-.655.977-.655h103.517a1.063 1.063 0 0 1 1.039 1.244l-1.305 7.416c-.09.505-.526.875-1.039.875zm-94.381-2.119h93.493l.931-5.297h-99.706zm185.148-56.14h-8.697a1.05 1.05 0 0 1-.807-.379 1.07 1.07 0 0 1-.232-.865l2.793-15.889a1.055 1.055 0 0 1 1.785-.565l7.395 7.416c.244.245.352.592.293.934l-1.49 8.473c-.09.505-.526.875-1.04.875m-7.441-2.119h6.554l1.24-7.056-5.57-5.586z"/><path fill="#FFF9C5" d="M396.777 128.169h34.591l3.386-19.251c.09-.505.526-.874 1.039-.874h101.574l17.444-99.212-5.57-5.586-17.342 98.626a1.055 1.055 0 0 1-1.039.874H429.286l-3.387 19.251a1.055 1.055 0 0 1-1.039.875h-33.362l5.283 5.297z"/><path fill="#88A28C" d="M432.252 130.288h-35.914c-.281 0-.547-.112-.745-.31l-7.395-7.416a1.058 1.058 0 0 1 .748-1.808h35.026l3.387-19.251c.09-.506.526-.875 1.039-.875h101.574L547.512.874a1.055 1.055 0 0 1 1.784-.564l7.395 7.415c.245.245.353.592.294.934l-17.694 100.628c-.09.506-.526.875-1.039.875H436.678l-3.387 19.251c-.09.506-.526.875-1.039.875m-35.475-2.118h34.59l3.387-19.252c.09-.505.526-.874 1.039-.874h101.574l17.444-99.212-5.57-5.586-17.342 98.626a1.056 1.056 0 0 1-1.039.874H429.286l-3.387 19.252a1.055 1.055 0 0 1-1.039.874h-33.362l5.282 5.298z"/></svg>