<svg xmlns="http://www.w3.org/2000/svg" width="1440" height="1121" fill="none"><g style="mix-blend-mode:multiply"><mask id="mask0_8_917" width="1440" height="1121" x="0" y="0" maskUnits="userSpaceOnUse" style="mask-type:alpha"><path fill="url('#paint0_linear_8_917')" d="M0 173.5 1440 0v947L0 1120.5z"/></mask><g mask="url('#mask0_8_917')"><path fill="#ECECED" d="m1233.33 0-46.66 80H1280z"/><path fill="#F2F1F2" d="M113.333 0 66.667 80H160z"/><path fill="#ECECED" d="m673.333 0-46.666 80H720z"/><path fill="#F2F1F2" d="m20 0-46.667 80h93.333z"/><path fill="#F6F5F8" d="m1140 0-46.67 80h93.34z"/><path fill="#FAFBFC" d="M1046.67 0 1000 80h93.33z"/><path fill="#F6F5F8" d="m953.333 0-46.666 80H1000z"/><path fill="#F2F1F2" d="m580 0-46.667 80h93.333zM766.667 0 720 80h93.333z"/><path fill="#F6F5F8" d="M1326.67 0 1280 80h93.33zM486.667 0 440 80h93.333zM1420 0l-46.67 80h93.34z"/><path fill="#FAFBFC" d="m300 0-46.667 80h93.333zM393.333 0l-46.666 80H440z"/><path fill="#F6F5F8" d="M206.667 0 160 80h93.333zM860 0l-46.667 80h93.333z"/><path fill="#ECECED" d="M253.333 80 300 0h-93.333z"/><path fill="#fff" d="M1373.33 80 1420 0h-93.33z"/><path fill="#ECECED" d="M813.333 80 860 0h-93.333z"/><path fill="#F2F1F2" d="m1466.67 80 46.66-80H1420z"/><path fill="#F6F5F8" d="m346.667 80 46.666-80H300z"/><path fill="#FAFBFC" d="m440 80 46.666-80h-93.333z"/><path fill="#F7F7F9" d="M533.333 80 580 0h-93.333z"/><path fill="#F2F1F2" d="m906.667 80 46.666-80H860z"/><path fill="#FDFDFE" d="m720 80 46.666-80h-93.333z"/><path fill="#FDFEFE" d="m160 80 46.666-80h-93.333z"/><path fill="#FAFBFC" d="m1000 80 46.67-80h-93.337z"/><path fill="#F6F5F8" d="m66.667 80 46.666-80H20z"/><path fill="#FAFBFC" d="M-26.667 80 20 0h-93.333zM1186.67 80l46.66-80H1140z"/><path fill="#F6F5F8" d="M1093.33 80 1140 0h-93.33zM1280 80l46.67-80h-93.34zM626.667 80l46.666-80H580z"/><path fill="#F2F2F4" d="m206.667 160 46.666-80H160z"/><path fill="#F2F1F2" d="m1326.67 160 46.66-80H1280z"/><path fill="#ECECED" d="m766.667 160 46.666-80H720z"/><path fill="#F2F1F2" d="m1420 160 46.67-80h-93.34z"/><path fill="#F6F5F8" d="m300 160 46.666-80h-93.333z"/><path fill="#FAFBFC" d="M393.333 160 440 80h-93.333z"/><path fill="#fff" d="m486.667 160 46.666-80H440z"/><path fill="#F2F1F2" d="m860 160 46.666-80h-93.333zM673.333 160 720 80h-93.333z"/><path fill="#F6F5F8" d="M113.333 160 160 80H66.667z"/><path fill="#FDFDFE" d="M953.333 160 1000 80h-93.333z"/><path fill="#F6F5F8" d="m20 160 46.666-80h-93.333z"/><path fill="#FAFBFC" d="m1140 160 46.67-80h-93.34z"/><path fill="#fff" d="m1046.67 160 46.66-80H1000zM1233.33 160 1280 80h-93.33z"/><path fill="#F7F7F9" d="m580 160 46.666-80h-93.333z"/><path fill="#F6F5F8" d="m1093.33 80 46.67 80h-93.33z"/><path fill="#ECECED" d="M66.667 80 20 160h93.333z"/><path fill="#F5F5F7" d="M626.667 80 580 160h93.333z"/><path fill="#FAFBFC" d="m-26.667 80-46.666 80H20z"/><path fill="#F6F5F8" d="m1186.67 80 46.66 80H1140z"/><path fill="#F7F7F7" d="m1280 80 46.67 80h-93.34z"/><path fill="#F6F5F8" d="M906.667 80 860 160h93.333z"/><path fill="#F2F1F2" d="m533.333 80-46.666 80H580z"/><path fill="#FDFDFE" d="m720 80-46.667 80h93.333z"/><path fill="#F6F5F8" d="m1000 80 46.67 80h-93.337zM440 80l-46.667 80h93.333zM1373.33 80l-46.66 80H1420z"/><path fill="#FAFBFC" d="M1466.67 80 1420 160h93.33zM253.333 80l-46.666 80H300z"/><path fill="#F6F5F8" d="M346.667 80 300 160h93.333zM160 80l-46.667 80h93.333zM813.333 80l-46.666 80H860z"/><path fill="#EDEDED" d="m1046.67 160 46.66 80H1000z"/><path fill="#F2F1F2" d="M766.667 160 720 240h93.333z"/><path fill="#F9FAFD" d="M393.333 320 440 240h-93.333z"/><path fill="#F2F1F2" d="m673.333 160-46.666 80H720z"/><path fill="#F6F5F8" d="m1140 160 46.67 80h-93.34z"/><path fill="#FAFBFC" d="m1233.33 160 46.67 80h-93.33zM580 320l-46.667-80h93.333z"/><path fill="#F7F7F9" d="m953.333 160-46.666 80H1000z"/><path fill="#F2F1F2" d="m486.667 320 46.666-80H440zM300 320l46.666-80h-93.333z"/><path fill="#F6F5F8" d="M1326.67 160 1280 240h93.33z"/><path fill="#fff" d="m1420 160-46.67 80h93.34zM113.333 160 160 240H66.667z"/><path fill="#EDEEEE" d="m20 160 46.666 80h-93.333z"/><path fill="#FDFEFE" d="m206.667 320 46.666-80H160z"/><path fill="#F6F5F8" d="m860 160-46.667 80h93.333z"/><path fill="#ECECED" d="m160 240-46.667-80h93.333zM1373.33 240l46.67-80h-93.33zM813.333 240 860 160h-93.333z"/><path fill="#F3F2F4" d="m1466.67 240 46.66-80H1420z"/><path fill="#F6F5F8" d="M66.667 240 20 160h93.333z"/><path fill="#F7F7F9" d="m-26.667 240-46.666-80H20z"/><path fill="#F6F5F8" d="m533.333 240-46.666 80H580z"/><path fill="#F2F1F2" d="m906.667 240 46.666-80H860z"/><path fill="#F7F7F9" d="M346.667 240 300 320h93.333z"/><path fill="#F6F5F8" d="m253.333 240-46.666 80H300z"/><path fill="#fff" d="m1280 240-46.67-80h93.34z"/><path fill="#F6F5F8" d="m720 240 46.666-80h-93.333z"/><path fill="#FAFBFC" d="m626.667 240 46.666-80H580zM1093.33 240l-46.66-80H1140z"/><path fill="#F4F4FA" d="M1186.67 240 1140 160h93.33z"/><path fill="#FAFBFC" d="m1000 240-46.667-80h93.337z"/><path fill="#F6F5F8" d="m440 240-46.667 80h93.333z"/><path fill="#F2F2F4" d="M206.667 640 160 720h93.333z"/><path fill="#F2F1F2" d="m1420 480-46.67 80h93.34z"/><path fill="#ECECED" d="m300 480-46.667-80h93.333z"/><path fill="#F2F1F2" d="m1233.33 800 46.67-80h-93.33z"/><path fill="#fff" d="M766.667 480 720 400h93.333z"/><path fill="#FAFBFC" d="m673.333 480-46.666-80H720z"/><path fill="#fff" d="m580 480-46.667-80h93.333z"/><path fill="#F2F1F2" d="m860 480 46.666-80h-93.333zM393.333 480l-46.666-80H440z"/><path fill="#F6F5F8" d="M113.333 480 160 400H66.667z"/><path fill="#FDFEFE" d="M953.333 480 1000 400h-93.333z"/><path fill="#F6F5F8" d="m20 480 46.666-80h-93.333z"/><path fill="#FAFBFC" d="M1186.67 240 1140 320h93.33z"/><path fill="#F6F5F8" d="m1046.67 480 46.66-80H1000z"/><path fill="#fff" d="m1233.33 480 46.67-80h-93.33z"/><path fill="#F6F5F8" d="M486.667 480 440 400h93.333zM1186.67 560l46.66-80H1140z"/><path fill="#ECECED" d="M66.667 400 20 480h93.333z"/><path fill="#FAFBFC" d="m440 400 46.666 80h-93.333z"/><path fill="#F2F1F2" d="m-26.667 400-46.666 80H20z"/><path fill="#F6F5F8" d="m1093.33 560 46.67-80h-93.33z"/><path fill="#fff" d="m1000 400-46.667 80h93.337z"/><path fill="#F6F5F8" d="M906.667 400 860 480h93.333z"/><path fill="#F2F1F2" d="M533.333 400 580 480h-93.333z"/><path fill="#FDFDFE" d="m346.667 400 46.666 80H300z"/><path fill="#F6F5F8" d="m1280 400-46.67 80h93.34z"/><path fill="#EEEDEE" d="m626.667 400 46.666 80H580z"/><path fill="#F6F5F8" d="m1373.33 560 46.67-80h-93.33z"/><path fill="#FAFBFC" d="M1466.67 400 1420 480h93.33zM253.333 400l-46.666 80H300z"/><path fill="#F6F5F8" d="m720 400 46.666 80h-93.333z"/><path fill="#FAFAFD" d="m160 400-46.667 80h93.333z"/><path fill="#F7F7F9" d="m813.333 400-46.666 80H860z"/><path fill="#ECECED" d="m1233.33 320-46.66 80H1280z"/><path fill="#F2F1F2" d="M766.667 320 720 400h93.333z"/><path fill="#F2F2F3" d="M393.333 320 440 400h-93.333z"/><path fill="#F2F1F2" d="m673.333 320-46.666 80H720z"/><path fill="#F6F5F8" d="m1186.67 400 46.66-80H1140z"/><path fill="#FAFBFC" d="M1046.67 320 1000 400h93.33z"/><path fill="#F4F4F4" d="m580 320-46.667 80h93.333z"/><path fill="#F9F9FA" d="m953.333 320-46.666 80H1000z"/><path fill="#F2F1F2" d="m486.667 320 46.666 80H440zM300 320l46.666 80h-93.333z"/><path fill="#F6F5F8" d="m1420 640 46.67-80h-93.34zM1233.33 640l-46.66 80H1280z"/><path fill="#FAFBFC" d="M113.333 320 160 400H66.667z"/><path fill="#EDEEEE" d="m20 320 46.666 80h-93.333z"/><path fill="#fff" d="m206.667 320 46.666 80H160z"/><path fill="#F9F9FA" d="m860 320-46.667 80h93.333z"/><path fill="#ECECED" d="m160 400-46.667-80h93.333zM1373.33 560l-46.66 80H1420zM813.333 400 860 320h-93.333z"/><path fill="#F2F1F2" d="m1466.67 400 46.66-80H1420z"/><path fill="#F6F5F8" d="M66.667 400 20 320h93.333z"/><path fill="#FAFBFC" d="m-26.667 400-46.666-80H20z"/><path fill="#F6F5F8" d="m533.333 400-46.666-80H580z"/><path fill="#F2F1F2" d="m906.667 400 46.666-80H860z"/><path fill="#EDEDEE" d="M346.667 400 300 320h93.333z"/><path fill="#F9F9FA" d="m253.333 400-46.666-80H300z"/><path fill="#FAFBFC" d="m1280 400-46.67-80h93.34z"/><path fill="#F6F5F8" d="m720 400 46.666-80h-93.333z"/><path fill="#FAFBFC" d="m626.667 400 46.666-80H580zM1140 640l-46.67-80h93.34z"/><path fill="#F6F5F8" d="m1093.33 400-46.66-80H1140z"/><path fill="#F6F5F8" d="m1000 400-46.667-80h93.337z"/><path fill="#FAFBFC" d="m440 400-46.667-80h93.333z"/><path fill="#F2F2F3" d="M206.667 160 160 240h93.333z"/><path fill="#F2F1F2" d="m1420 640-46.67 80h93.34z"/><path fill="#ECECED" d="m300 160-46.667 80h93.333z"/><path fill="#F2F1F2" d="m1233.33 640 46.67-80h-93.33z"/><path fill="#FAFAFD" d="m113.333 320-46.666-80H160z"/><path fill="#fff" d="m20 320-46.667-80h93.333z"/><path fill="#F2F1F2" d="m860 320 46.666-80h-93.333zM393.333 160l-46.666 80H440z"/><path fill="#F7F7F9" d="m766.667 320 46.666-80H720z"/><path fill="#FDFEFE" d="M953.333 320 1000 240h-93.333z"/><path fill="#F6F5F8" d="M673.333 320 720 240h-93.333zM580 160l46.666 80h-93.333z"/><path fill="#FAFBFC" d="m1140 320-46.67-80h93.34z"/><path fill="#F6F5F8" d="m1233.33 320-46.66-80H1280z"/><path fill="#fff" d="M1046.67 320 1000 240h93.33z"/><path fill="#F6F5F8" d="M486.667 160 440 240h93.333zM1093.33 240l46.67 80h-93.33z"/><path fill="#ECECED" d="m720 240-46.667 80h93.333zM440 240l46.666-80h-93.333z"/><path fill="#F2F1F2" d="M626.667 240 580 320h93.333z"/><path fill="#EBEAEE" d="m1140 480 46.67 80h-93.34z"/><path fill="#FDFEFE" d="m1280 240 46.67 80h-93.34z"/><path fill="#F6F5F8" d="M906.667 240 860 320h93.333z"/><path fill="#F2F1F2" d="M533.333 240 580 160h-93.333z"/><path fill="#FDFDFE" d="m346.667 240 46.666-80H300z"/><path fill="#F6F5F8" d="m1000 240 46.67 80h-93.337zM-26.667 240 20 320h-93.333zM1373.33 720l46.67-80h-93.33z"/><path fill="#FAFBFC" d="M1466.67 240 1420 320h93.33z"/><path fill="#F7F7F7" d="m160 240 46.666 80h-93.333z"/><path fill="#F2F1F2" d="m66.667 240 46.666 80H20z"/><path fill="#F7F7F9" d="M253.333 240 300 160h-93.333z"/><path fill="#F6F5F8" d="m813.333 240-46.666 80H860z"/><path fill="#ECECED" d="m206.667 960 46.666-80H160z"/><path fill="#F2F1F2" d="m1326.67 960 46.66-80H1280z"/><path fill="#ECECED" d="m766.667 960 46.666-80H720z"/><path fill="#F2F1F2" d="m1420 960 46.67-80h-93.34z"/><path fill="#F6F5F8" d="m300 960 46.666-80h-93.333z"/><path fill="#FAFBFC" d="M393.333 960 440 880h-93.333z"/><path fill="#F6F5F8" d="m486.667 960 46.666-80H440z"/><path fill="#F2F1F2" d="m860 960 46.666-80h-93.333zM673.333 960 720 880h-93.333z"/><path fill="#F6F5F8" d="M113.333 960 160 880H66.667zM953.333 960 1000 880h-93.333zM20 960l46.666-80h-93.333z"/><path fill="#FAFBFC" d="m1140 960 46.67-80h-93.34zM1046.67 960l46.66-80H1000z"/><path fill="#F6F5F8" d="m1233.33 960 46.67-80h-93.33zM580 960l46.666-80h-93.333z"/><path fill="#ECECED" d="M1186.67 880 1140 960h93.33zM66.667 880 20 960h93.333zM626.667 880 580 960h93.333z"/><path fill="#F2F1F2" d="m-26.667 880-46.666 80H20z"/><path fill="#F6F5F8" d="m1093.33 880-46.66 80H1140z"/><path fill="#FAFBFC" d="m1000 880-46.667 80h93.337z"/><path fill="#F6F5F8" d="M906.667 880 860 960h93.333z"/><path fill="#F2F1F2" d="m533.333 880-46.666 80H580z"/><path fill="#FDFDFE" d="m720 880-46.667 80h93.333z"/><path fill="#FDFEFE" d="m1280 880-46.67 80h93.34z"/><path fill="#FAFBFC" d="m440 880-46.667 80h93.333z"/><path fill="#F6F5F8" d="m1373.33 880-46.66 80H1420z"/><path fill="#FAFBFC" d="M1466.67 880 1420 960h93.33zM253.333 880l-46.666 80H300z"/><path fill="#F6F5F8" d="M346.667 880 300 960h93.333zM160 880l-46.667 80h93.333zM813.333 880l-46.666 80H860z"/><path fill="#F2F2F4" d="m1233.33 800-46.66 80H1280z"/><path fill="#F2F1F2" d="m113.333 800-46.666 80H160z"/><path fill="#ECECED" d="m673.333 800-46.666 80H720z"/><path fill="#F2F1F2" d="m20 800-46.667 80h93.333z"/><path fill="#F6F5F8" d="m1140 800-46.67 80h93.34z"/><path fill="#FAFBFC" d="M1046.67 800 1000 880h93.33z"/><path fill="#fff" d="m953.333 800-46.666 80H1000z"/><path fill="#F2F1F2" d="m580 800-46.667 80h93.333zM766.667 800 720 880h93.333z"/><path fill="#F6F5F8" d="M1326.67 800 1280 880h93.33z"/><path fill="#FDFDFE" d="M486.667 800 440 880h93.333z"/><path fill="#F6F5F8" d="m1420 800-46.67 80h93.34z"/><path fill="#FAFBFC" d="m300 800-46.667 80h93.333z"/><path fill="#EEEDEE" d="m393.333 800-46.666 80H440z"/><path fill="#fff" d="M206.667 800 160 880h93.333z"/><path fill="#F6F5F8" d="m860 800-46.667 80h93.333zM346.667 880 300 800h93.333z"/><path fill="#ECECED" d="m1373.33 880 46.67-80h-93.33z"/><path fill="#F5F5F7" d="M813.333 880 860 800h-93.333z"/><path fill="#F2F1F2" d="m1466.67 880 46.66-80H1420z"/><path fill="#F6F5F8" d="m253.333 880-46.666-80H300z"/><path fill="#F7F7F7" d="m160 880-46.667-80h93.333z"/><path fill="#F6F5F8" d="M533.333 880 580 800h-93.333z"/><path fill="#F2F1F2" d="m906.667 880 46.666-80H860z"/><path fill="#FDFDFE" d="m720 880 46.666-80h-93.333z"/><path fill="#F6F5F8" d="m440 880-46.667-80h93.333zM1000 880l46.67-80h-93.337zM66.667 880l46.666-80H20z"/><path fill="#FAFBFC" d="M-26.667 880 20 800h-93.333zM1186.67 880l46.66-80H1140z"/><path fill="#F6F5F8" d="m1093.33 880 46.67-80h-93.33zM1280 880l46.67-80h-93.34zM626.667 880l46.666-80H580z"/><path fill="#EDEDED" d="m393.333 800-46.666-80H440z"/><path fill="#F2F1F2" d="M673.333 800 720 720h-93.333z"/><path fill="#fff" d="m1140 320-46.67 80h93.34z"/><path fill="#F2F1F2" d="m766.667 800 46.666-80H720z"/><path fill="#F6F5F8" d="m300 800-46.667-80h93.333z"/><path fill="#FAFBFC" d="M253.333 720 300 800h-93.333zM860 640l46.666 80h-93.333z"/><path fill="#F7F7F9" d="m486.667 800 46.666-80H440z"/><path fill="#F2F1F2" d="m953.333 640-46.666 80H1000z"/><path fill="#FAFBFC" d="m1046.67 640 46.66-80H1000z"/><path fill="#F6F5F8" d="M113.333 800 160 720H66.667zM20 800l46.666-80h-93.333z"/><path fill="#FAFBFC" d="m1233.33 480 46.67 80h-93.33z"/><path fill="#F1F1F2" d="m1420 800-46.67-80h93.34z"/><path fill="#FDFEFE" d="M1326.67 480 1280 560h93.33z"/><path fill="#F6F5F8" d="m580 800 46.666-80h-93.333z"/><path fill="#ECECED" d="m1280 560-46.67-80h93.34zM66.667 720 20 800h93.333zM626.667 720 580 800h93.333z"/><path fill="#F2F1F2" d="m-26.667 720-46.666 80H20z"/><path fill="#F6F5F8" d="m1373.33 720 46.67 80h-93.33z"/><path fill="#FAFBFC" d="m1466.67 720 46.66 80H1420z"/><path fill="#F6F5F8" d="m906.667 720 46.666-80H860z"/><path fill="#F2F1F2" d="m533.333 720-46.666 80H580z"/><path fill="#F7F7F9" d="m1093.33 560-46.66 80H1140z"/><path fill="#F6F5F8" d="m1000 560-46.667 80h93.337z"/><path fill="#FAFBFC" d="m160 720 46.666 80h-93.333z"/><path fill="#F6F5F8" d="m720 720-46.667 80h93.333z"/><path fill="#FAFBFC" d="m813.333 720-46.666 80H860zM346.667 720l46.666 80H300z"/><path fill="#F4F4FA" d="M206.667 800 160 720h93.333z"/><path fill="#FAFBFC" d="m440 720 46.666 80h-93.333z"/><path fill="#F6F5F8" d="M1186.67 560 1140 640h93.33z"/><path fill="#F2F2F4" d="m1326.67 800 46.66-80H1280z"/><path fill="#F2F1F2" d="m113.333 480-46.666 80H160z"/><path fill="#ECECED" d="m1186.67 400 46.66 80H1140z"/><path fill="#F2F1F2" d="m20 480-46.667 80h93.333z"/><path fill="#F7F7F9" d="m533.333 560-46.666-80H580z"/><path fill="#FAFBFC" d="m766.667 480 46.666 80H720z"/><path fill="#fff" d="m860 480 46.666 80h-93.333z"/><path fill="#F2F1F2" d="m486.667 640 46.666-80H440zM1046.67 480l46.66 80H1000z"/><path fill="#F6F5F8" d="m1420 480 46.67-80h-93.34zM580 640l46.666-80h-93.333zM1326.67 480l46.66-80H1280z"/><path fill="#FAFBFC" d="m300 480-46.667 80h93.333z"/><path fill="#EEEDEE" d="m393.333 480-46.666 80H440z"/><path fill="#fff" d="m206.667 640 46.666-80H160z"/><path fill="#F6F5F8" d="M953.333 480 1000 560h-93.333zM253.333 560 300 480h-93.333z"/><path fill="#ECECED" d="m1373.33 400-46.66 80H1420z"/><path fill="#FAFBFC" d="m1000 560-46.667-80h93.337z"/><path fill="#F2F1F2" d="m1466.67 560 46.66-80H1420z"/><path fill="#F6F5F8" d="m346.667 560 46.666-80H300z"/><path fill="#fff" d="m440 560 46.666-80h-93.333z"/><path fill="#E5E5E5" d="m533.333 560-46.666 80H580z"/><path fill="#F2F1F2" d="M906.667 560 860 480h93.333z"/><path fill="#FDFDFE" d="m1093.33 400 46.67 80h-93.33z"/><path fill="#F6F5F8" d="m160 560 46.666-80h-93.333zM813.333 560l-46.666-80H860zM66.667 560l46.666-80H20z"/><path fill="#FAFBFC" d="M-26.667 560 20 480h-93.333z"/><path fill="#F1F1F2" d="m1140 480 46.67-80h-93.34z"/><path fill="#F2F0F2" d="m720 560-46.667-80h93.333z"/><path fill="#F6F5F8" d="m1280 720-46.67 80h93.34z"/><path fill="#fff" d="m1280.47 559.492-46.67 80h93.33z"/><path fill="#F6F5F8" d="m580 480-46.667 80h93.333z"/><path fill="#ECECED" d="M206.667 480 160 560h93.333z"/><path fill="#F2F1F2" d="M673.333 640 720 560h-93.333z"/><path fill="#F2F2F3" d="m1140 640 46.67 80h-93.34z"/><path fill="#F2F1F2" d="m766.667 640 46.666-80H720z"/><path fill="#F2F2F3" d="m300 640 46.666-80h-93.333z"/><path fill="#FAFBFC" d="M393.333 640 440 560h-93.333z"/><path fill="#F4F4F4" d="m860 640 46.666-80h-93.333z"/><path fill="#FAFAFD" d="m626.667 560 46.666-80H580z"/><path fill="#F2F1F2" d="m953.333 640-46.666-80H1000z"/><path fill="#FDFDFE" d="m1046.67 640 46.66 80H1000z"/><path fill="#F6F5F8" d="M113.333 640 160 560H66.667zM20 640l46.666-80h-93.333z"/><path fill="#FAFBFC" d="m1420 320 46.67 80h-93.34z"/><path fill="#EDEEEE" d="m1326.67 320 46.66 80H1280z"/><path fill="#fff" d="m1326.67 640 46.66 80H1280z"/><path fill="#F6F5F8" d="M486.667 480 440 560h93.333z"/><path fill="#ECECED" d="m1280 720-46.67-80h93.34zM66.667 560 20 640h93.333zM626.667 560 580 640h93.333z"/><path fill="#F2F1F2" d="m-26.667 560-46.666 80H20z"/><path fill="#F6F5F8" d="m1373.33 400-46.66-80H1420z"/><path fill="#FAFBFC" d="m1466.67 560 46.66 80H1420z"/><path fill="#fff" d="m906.667 560 46.666 80H860z"/><path fill="#F2F1F2" d="m673.333 480-46.666 80H720z"/><path fill="#EDEDEE" d="m1093.33 720-46.66-80H1140z"/><path fill="#F2F1F2" d="m1000 720-46.667-80h93.337z"/><path fill="#FAFBFC" d="m160 560 46.666 80h-93.333z"/><path fill="#F6F5F8" d="m720 560-46.667 80h93.333z"/><path fill="#FAFBFC" d="m813.333 560-46.666 80H860zM346.667 560l46.666 80H300z"/><path fill="#F6F5F8" d="M253.333 560 300 640h-93.333zM440 560l46.666 80h-93.333z"/><path fill="#FDFDFE" d="M1186.67 720 1140 640h93.33z"/><path fill="#F2F2F3" d="m1326.67 640 46.66-80H1280z"/><path fill="#F2F1F2" d="m113.333 640-46.666 80H160z"/><path fill="#ECECED" d="m1140 800 46.67-80h-93.34z"/><path fill="#F2F1F2" d="m20 640-46.667 80h93.333z"/><path fill="#F6F5F8" d="m1420 320-46.67-80h93.34z"/><path fill="#F9F9FA" d="M1326.67 320 1280 240h93.33z"/><path fill="#F2F1F2" d="m580 640-46.667 80h93.333zM1046.67 800l46.66-80H1000z"/><path fill="#F6F5F8" d="m673.333 640-46.666 80H720z"/><path fill="#FDFEFE" d="M486.667 640 440 720h93.333z"/><path fill="#F6F5F8" d="M766.667 640 720 720h93.333zM860 800l-46.667-80h93.333z"/><path fill="#FAFBFC" d="m253.333 720-46.666-80H300z"/><path fill="#F6F5F8" d="M206.667 480 160 400h93.333z"/><path fill="#fff" d="M393.333 640 440 720h-93.333z"/><path fill="#F6F5F8" d="M953.333 800 1000 720h-93.333zM346.667 720 300 640h93.333z"/><path fill="#ECECED" d="m720 720 46.666-80h-93.333zM1000 720l-46.667 80h93.337z"/><path fill="#F2F1F2" d="M813.333 720 860 640h-93.333z"/><path fill="#FDFEFE" d="m300 640 46.666 80h-93.333z"/><path fill="#FAFBFC" d="m160 720-46.667-80h93.333z"/><path fill="#F6F5F8" d="M533.333 720 580 640h-93.333z"/><path fill="#F2F1F2" d="M906.667 720 860 800h93.333z"/><path fill="#FDFDFE" d="m1093.33 720-46.66 80H1140z"/><path fill="#F6F5F8" d="m440 720-46.667-80h93.333zM1466.67 720 1420 640h93.33zM66.667 720l46.666-80H20z"/><path fill="#FAFBFC" d="M-26.667 720 20 640h-93.333z"/><path fill="#F2F2F3" d="m1280 720-46.67-80h93.34z"/><path fill="#F2F1F2" d="m1373.33 240 46.67 80h-93.33z"/><path fill="#F7F7F9" d="M1186.67 720 1140 800h93.33z"/><path fill="#F6F5F8" d="m626.667 720 46.666-80H580z"/><path fill="#EDEDED" d="m1046.67 1120 46.66-80H1000z"/><path fill="#F2F1F2" d="M766.667 1120 720 1040h93.333z"/><path fill="#F2F2F3" d="M393.333 960 440 1040h-93.333z"/><path fill="#F2F1F2" d="m673.333 1120-46.666-80H720z"/><path fill="#F6F5F8" d="m1140 1120 46.67-80h-93.34z"/><path fill="#FAFBFC" d="m1233.33 1120 46.67-80h-93.33zM580 960l-46.667 80h93.333z"/><path fill="#F7F7F9" d="m953.333 1120-46.666-80H1000z"/><path fill="#F2F1F2" d="m486.667 960 46.666 80H440zM300 960l46.666 80h-93.333z"/><path fill="#F6F5F8" d="m1326.67 1120-46.67-80h93.33zM1420 1120l-46.67-80h93.34z"/><path fill="#FAFBFC" d="M113.333 1120 160 1040H66.667z"/><path fill="#EDEEEE" d="m20 1120 46.666-80h-93.333z"/><path fill="#FDFEFE" d="m206.667 960 46.666 80H160z"/><path fill="#F6F5F8" d="m860 1120-46.667-80h93.333z"/><path fill="#ECECED" d="m160 1040-46.667 80h93.333zM1373.33 1040l46.67 80h-93.33zM813.333 1040 860 1120h-93.333z"/><path fill="#F2F1F2" d="m1466.67 1040 46.66 80H1420z"/><path fill="#F6F5F8" d="M66.667 1040 20 1120h93.333z"/><path fill="#FAFBFC" d="m-26.667 1040-46.666 80H20z"/><path fill="#F6F5F8" d="m533.333 1040-46.666-80H580z"/><path fill="#F2F1F2" d="m906.667 1040 46.666 80H860z"/><path fill="#F7F7F9" d="M346.667 1040 300 960h93.333z"/><path fill="#F6F5F8" d="m253.333 1040-46.666-80H300z"/><path fill="#FAFBFC" d="m1280 1040-46.67 80h93.34z"/><path fill="#F6F5F8" d="m720 1040 46.666 80h-93.333z"/><path fill="#FAFBFC" d="m626.667 1040 46.666 80H580zM1093.33 1040l-46.66 80H1140z"/><path fill="#F4F4FA" d="m1186.67 1040-46.67 80h93.33z"/><path fill="#FAFBFC" d="m1000 1040-46.667 80h93.337z"/><path fill="#F6F5F8" d="m440 1040-46.667-80h93.333z"/><path fill="#F2F2F3" d="M206.667 1120 160 1040h93.333z"/><path fill="#F2F1F2" d="m1326.67 960 46.66 80H1280z"/><path fill="#ECECED" d="m300 1120-46.667-80h93.333z"/><path fill="#F2F1F2" d="m1420 960 46.67 80h-93.34z"/><path fill="#F6F5F8" d="m113.333 960-46.666 80H160z"/><path fill="#fff" d="m20 960-46.667 80h93.333z"/><path fill="#F2F1F2" d="m860 960 46.666 80h-93.333zM393.333 1120l-46.666-80H440z"/><path fill="#F6F5F8" d="m766.667 960 46.666 80H720z"/><path fill="#FDFEFE" d="m953.333 960 46.667 80h-93.333z"/><path fill="#F6F5F8" d="M673.333 960 720 1040h-93.333zM580 1120l46.666-80h-93.333z"/><path fill="#FAFBFC" d="m1140 960-46.67 80h93.34z"/><path fill="#F6F5F8" d="m1233.33 960-46.66 80H1280z"/><path fill="#fff" d="m1046.67 960-46.67 80h93.33z"/><path fill="#F6F5F8" d="M486.667 1120 440 1040h93.333zM1093.33 1040l46.67-80h-93.33z"/><path fill="#ECECED" d="m720 1040-46.667-80h93.333zM440 1040l46.666 80h-93.333z"/><path fill="#F2F1F2" d="M626.667 1040 580 960h93.333z"/><path fill="#F6F5F8" d="m1186.67 1040 46.66-80H1140z"/><path fill="#FAFBFC" d="m1280 1040 46.67-80h-93.34z"/><path fill="#F6F5F8" d="M906.667 1040 860 960h93.333z"/><path fill="#F2F1F2" d="M533.333 1040 580 1120h-93.333z"/><path fill="#FDFDFE" d="m346.667 1040 46.666 80H300z"/><path fill="#F6F5F8" d="m1000 1040 46.67-80h-93.337zM-26.667 1040 20 960h-93.333zM1373.33 1040l-46.66-80H1420z"/><path fill="#FAFBFC" d="M1466.67 1040 1420 960h93.33zM160 1040l46.666-80h-93.333z"/><path fill="#F2F1F2" d="m66.667 1040 46.666-80H20z"/><path fill="#F7F7F9" d="M253.333 1040 300 1120h-93.333z"/><path fill="#F6F5F8" d="m813.333 1040-46.666-80H860z"/></g></g><defs><linearGradient id="paint0_linear_8_917" x1="103" x2="1417" y1="1120.5" y2="-.5" gradientUnits="userSpaceOnUse"><stop stop-color="#1DDF6B"/><stop offset="1" stop-color="#63E200"/></linearGradient></defs></svg>