<svg xmlns="http://www.w3.org/2000/svg" width="771" height="175" fill="none"><g filter="url('#filter0_d_8_1901')"><path fill="#fff" d="M361.496 151.792H28c-13.807 0-25-11.192-25-25V28C3 14.193 14.193 3 28 3h709.639c13.779 0 24.96 11.149 25 24.927l.288 98.793c.04 13.835-11.164 25.072-25 25.072h-333.29L384.274 167z"/><path stroke="#09A849" stroke-linecap="round" stroke-linejoin="round" stroke-width="4.662" d="M361.496 151.792H28c-13.807 0-25-11.192-25-25V28C3 14.193 14.193 3 28 3h709.639c13.779 0 24.96 11.149 25 24.927l.288 98.793c.04 13.835-11.164 25.072-25 25.072h-333.29L384.274 167z"/></g><defs><filter id="filter0_d_8_1901" width="769.589" height="173.662" x=".669" y=".669" color-interpolation-filters="sRGB" filterUnits="userSpaceOnUse"><feFlood flood-opacity="0" result="BackgroundImageFix"/><feColorMatrix in="SourceAlpha" result="hardAlpha" values="0 0 0 0 0 0 0 0 0 0 0 0 0 0 0 0 0 0 127 0"/><feOffset dx="5" dy="5"/><feComposite in2="hardAlpha" operator="out"/><feColorMatrix values="0 0 0 0 0 0 0 0 0 0 0 0 0 0 0 0 0 0 0.15 0"/><feBlend in2="BackgroundImageFix" result="effect1_dropShadow_8_1901"/><feBlend in="SourceGraphic" in2="effect1_dropShadow_8_1901" result="shape"/></filter></defs></svg>